<svg width="20" height="20" viewBox="0 0 20 20" fill="none" xmlns="http://www.w3.org/2000/svg">
<path d="M4.37592 8.068C4.16317 8.68988 4.05504 9.34274 4.05592 10C4.05592 10.734 4.18792 11.437 4.43192 12.086C4.73603 12.8972 5.21372 13.6321 5.83156 14.2393C6.4494 14.8466 7.19247 15.3115 8.00877 15.6015C8.82508 15.8916 9.69491 15.9998 10.5574 15.9185C11.4199 15.8372 12.2542 15.5684 13.0019 15.131H13.0029C14.181 14.4404 15.0861 13.3661 15.5669 12.088H10.2199V8.132H19.8249C20.0733 9.44049 20.0584 10.7854 19.7809 12.088C19.3001 14.3399 18.0568 16.3568 16.2609 17.798C14.4871 19.2264 12.2773 20.0035 9.99992 20C8.28289 20.001 6.59455 19.5597 5.09755 18.7187C3.60056 17.8778 2.34538 16.6655 1.45293 15.1986C0.560485 13.7317 0.0608551 12.0597 0.00217851 10.3437C-0.0564981 8.62764 0.327757 6.92542 1.11792 5.401C1.96089 3.77291 3.2353 2.40796 4.8018 1.4554C6.36829 0.502843 8.16655 -0.000642863 9.99992 6.16024e-07C12.4259 6.16024e-07 14.6509 0.864001 16.3829 2.302L13.1429 4.954C12.3839 4.48164 11.5282 4.18643 10.6394 4.09034C9.75066 3.99424 8.85164 4.09972 8.00923 4.39894C7.16682 4.69816 6.40269 5.18342 5.77366 5.81864C5.14463 6.45386 4.66688 7.2227 4.37592 8.068Z" fill="#0F62FE"/>
</svg>
