<svg width="52" height="48" viewBox="0 0 52 48" fill="none" xmlns="http://www.w3.org/2000/svg">
<path d="M17 16.5H24.5C24.8978 16.5 25.2794 16.658 25.5607 16.9393C25.842 17.2206 26 17.6022 26 18C26 18.3978 25.842 18.7794 25.5607 19.0607C25.2794 19.342 24.8978 19.5 24.5 19.5H17C16.6022 19.5 16.2206 19.342 15.9393 19.0607C15.658 18.7794 15.5 18.3978 15.5 18C15.5 17.6022 15.658 17.2206 15.9393 16.9393C16.2206 16.658 16.6022 16.5 17 16.5V16.5ZM27.5 28.5H35C35.3978 28.5 35.7794 28.658 36.0607 28.9393C36.342 29.2206 36.5 29.6022 36.5 30C36.5 30.3978 36.342 30.7794 36.0607 31.0607C35.7794 31.342 35.3978 31.5 35 31.5H27.5C27.1022 31.5 26.7206 31.342 26.4393 31.0607C26.158 30.7794 26 30.3978 26 30C26 29.6022 26.158 29.2206 26.4393 28.9393C26.7206 28.658 27.1022 28.5 27.5 28.5ZM17 22.5H35C35.3978 22.5 35.7794 22.658 36.0607 22.9393C36.342 23.2206 36.5 23.6022 36.5 24C36.5 24.3978 36.342 24.7794 36.0607 25.0607C35.7794 25.342 35.3978 25.5 35 25.5H17C16.6022 25.5 16.2206 25.342 15.9393 25.0607C15.658 24.7794 15.5 24.3978 15.5 24C15.5 23.6022 15.658 23.2206 15.9393 22.9393C16.2206 22.658 16.6022 22.5 17 22.5Z" fill="#001D6C"/>
</svg>
